<svg xmlns="http://www.w3.org/2000/svg" width="439" height="404" fill="none" fill-rule="evenodd"><path d="M2.5 202.5V399c0 2.5.3 2.8 2.7 2.8h230.7c2.1 0 3.9-.4 5.4-1.9l5.9-5.9 17.1-17.2 13.2-13.1 13-13.2 16.7-16.5 10.8-10.9 2.4-2.6 3.1-2.9 6.2-6.5c3-3.1 6.1-6.1 9.2-9.2l6-6c2.8-2.7 5.6-5.3 8.3-8.1 2.2-2.2 4.2-4.5 6.4-6.7l7.6-7.1c3-2.9 5.9-5.9 8.8-8.9l9.8-9.9 8.6-8.8 11.5-11.2c2.7-2.7 5.2-5.4 7.9-8.2l5.7-5.7 8.1-7.9c2.6-2.6 5.2-5.3 7.9-7.8 2.1-1.9 1.4-4.2-.2-5.2-1.8-1.1-3.1-2.6-4.3-4.3-.3-.4-.8-.8-1.2-1.1-1.1-1-2.1-2.1-3.2-3.1l-1.8-1.8-3.4-3.6c-.4-.5-.8-1-1.3-1.3-3.2-1.9-5-5.2-7.9-7.4-1.2-.9-2-2.3-3.3-3.3-1-.7-1.6-1.9-2.4-2.8-.5-.6-1.1-1.1-1.7-1.6s-1.3-.9-1.8-1.5c-1.5-1.7-2.8-3.6-4.8-4.8-.6-.3-.9-1.1-1.4-1.6-.6-.7-1.2-1.4-1.9-2.1s-1.7-1.2-2.3-2c-1.2-1.5-2.6-2.7-4-4-2.1-2-4.1-4.1-6.1-6.2-1.3-1.4-2.6-2.7-4-3.9-.8-.7-1.3-1.5-2-2.3-.5-.6-1-1.2-1.6-1.7-.9-.8-1.9-1.6-2.9-2.5s-1.9-1.9-2.8-2.8c-.5-.5-1.2-.9-1.5-1.5-1.7-2.8-5.2-4-6.5-7.1-2.2-1.3-3.8-3.3-5.5-5.2-2.2-2.3-4.7-4.5-7-6.7-1.2-1.1-2.2-2.4-3.3-3.6-2.6-2.6-5.4-5.1-8-7.7-1-1.1-2.1-2.1-3.1-3.1-2.2-2.1-4.3-4.3-6.5-6.5-3.1-3.1-6.1-6.3-9.3-9.3-1.1-1-1.9-2.3-3-3.3l-7.9-7.5c-.2-.2-.4-.5-.6-.7-.6-.7-1.2-1.4-1.9-2.1l-8.1-7.9c-2-2-3.8-4.2-5.7-6.3-.2-.2-.4-.3-.6-.4-2.9-2-4.5-5.3-7.6-7.2-.1-.1-.2-.3-.3-.4-1.8-2.7-5-4.2-6.6-7.1 0-.1-.1-.1-.2-.1l-7.8-7.2c-.2-.2-.3-.4-.4-.6-.9-1-1.7-2.1-2.7-3-2.5-2.1-4.4-5-7.2-6.8-.4-.3-.6-.9-1-1.3-.5-.5-.9-1.1-1.5-1.5-1.1-1-2.2-2.1-3.2-3.1l-2.4-2.4c-.9-.9-1.7-1.8-2.6-2.7-.6-.6-1.1-1.1-1.7-1.6-1.2-1.2-2.4-2.5-3.7-3.7-2.3-2.2-4.3-4.2-8-4.2L7 3C2.6 3 2.6 3 2.6 7.3l-.1 195.2z" stroke="#fff" stroke-width="4"/><path d="M135.6 262.5l-.2 3.5v110.2c-.1 1.9-.7 2.5-2.7 2.6H27.2c-2.7-.1-3.3-.8-3.4-3.5V31.6c0-1.1-.1-2.2.1-3.4.1-1.5.8-2.1 2.3-2.2.7-.1 1.4 0 2.2 0h103c4.1 0 4.2.1 4.2 4.2v111c.9-.5 1.4-.6 1.8-1l34.7-34.7 13.6-13c2.6-2.5 5.1-5.3 7.7-7.8l7.3-6.8c.6-.5 1-1.2 1.5-1.8l8.3-8.1 14.2-14.2 8.1-8c.4-.4.7-.8 1.2-1.2 1.6-1.3 2.4-1.2 3.9.3l9.9 9.9 11.2 11L272 79l13.5 13.4 16.6 16.7c1.4 1.4 2.8 2.8 4.3 4.1.2.2.4.6.7.6 3.9 1.1 5.8 4.5 8.4 7 2.3 2.2 5 4 6.7 6.8l.3.3c2.6 2.4 5.1 4.9 7.6 7.3.6.5 1 1.2 1.6 1.8.3.3.5.6.8.9l7.8 7.5c.3.3.7.6 1 1 1.1 1.2 2.3 2.3 3.4 3.5.7.7 1.4 1.5 2 2.3.2.2.4.5.7.7l7.4 7.2c.8.8 1.6 1.8 2.4 2.6l8.3 8c.3.3.7.6 1 1 .8.9 1.5 1.9 2.3 2.7 1.2 1 2.5 1.9 3.3 3.3.4.7 1 1.3 1.7 1.6 1.4.7 2.1 2 3.1 3.1 2.5 2.6 5.3 5 7.9 7.6l6.6 6.7c.8.8 1.3 1.9 2.2 2.4 1.8.9 1.9 2.3 1.8 4 0 .5-.1 1-.1.9-1.2 1.4-2.1 2.4-3.1 3.5-.3.3-.5.6-.8.9-2 1.9-3.9 3.9-5.9 5.8-2.4 2.3-4.9 4.5-7.3 6.9-.7.7-1.2 1.7-1.9 2.4-2.5 2.4-5.3 4.5-7.5 7.1-2.1 2.6-5.1 4.2-6.8 7.2-.2.3-.5.6-.8.8-1.8 1.2-3.1 2.8-4.6 4.4-2.6 2.8-5.4 5.3-8.2 7.9-.4.4-.8.9-1.2 1.4-.2.3-.5.6-.7.9l-6 6-7.5 7.1c-2.3 2.3-4.4 4.7-6.6 7-.6.6-1.2 1.2-1.9 1.7-.9.6-1.8 1.3-2.2 2.4-.3.6-.9 1.1-1.4 1.5-1.5 1.2-3.1 2.2-4 4-.3.6-1.1.9-1.6 1.4-1 1.1-2 2.2-3.1 3.2-1.2 1.2-2.3 2.6-4.3 2.8-.7.1-1.4.5-1.9.9-3.7 3.6-7.3 7.3-10.9 11l-6.8 6.7-15.4 15.2-15 15-6.9 7.3c-.1.1-.2.2-.3.4l-7.8 7.4c-1.7 1.6-3.3 3.4-5.1 5-1.3 1.2-1.9 1.3-3.4.4-.8-.5-1.6-1.1-2.2-1.8-2.3-2.4-4.3-5.2-6.8-7.2-2.8-2.2-4.8-5.1-7.6-7.2-2.6-1.9-4.5-4.7-6.7-7.1-.4-.4-.8-.7-1.2-1.1-.9-.8-1.9-1.7-2.8-2.6-1.2-1.1-2.4-2.3-3.6-3.4l-7.5-7.6c-.3-.3-.6-.7-1-1-.3-.3-.7-.4-1-.7l-8.1-8c-.9-.9-1.9-1.6-2.8-2.5a509.9 509.9 0 0 1-10.4-10.4l-7.3-7.5-5.4-5.4-9.7-9.8c-2.5-2.5-5.2-4.9-7.7-7.4l-6.9-6.9c.3.4.1.4-.1.5zm171.5 24c.6-3.7.4-165.9-.2-167.8-.7.3-1.5.5-2.1 1-2.4 2.2-4.4 4.8-6.9 6.8-1.1.9-1.9 2.1-2.9 3.1-2.3 2.3-4.7 4.5-7 6.7-.2.2-.3.4-.4.6l-3 3c-.5.4-1 .8-1.4 1.3-2.8 3.1-5.8 6-8.8 8.9-2.1 2-3.9 4.4-6.3 6.2l-.3.3c-2.2 2.4-4.3 4.8-6.6 7.1-2.5 2.5-5.2 4.9-7.8 7.3-1.3 1.2-2.4 2.5-3.6 3.8-2 1.9-4.1 3.7-6 5.8-1.6 1.8-3.4 3.5-5.2 5.2-2.5 2.3-4.6 4.9-7 7.4-.4.4-.9.7-1.3 1-.8.7-1.7 1.2-2.3 2-1.1 1.6-2.5 2.9-4 4-1.7 1.3-1.8 2.7-.1 4 1.6 1.3 2.9 2.8 4.3 4.4.4.5 1 .8 1.5 1.2a29.49 29.49 0 0 1 2.5 2.5c.7.7 1.2 1.6 1.9 2.1 1.4.9 2.5 2.2 3.6 3.5 1.8 2.1 4 3.8 5.9 5.8 2.3 2.6 5 4.8 7.6 7.2l.3.3 8.1 8.4c2.2 2.2 4.5 4.2 6.7 6.3.2.2.2.4.4.6 1.2 1.2 2.4 2.5 3.7 3.7.4.4 1 .8 1.4 1.3l7.2 7.6c.4.4.9.7 1.3 1s.9.5 1.1.9c1.6 3 5.1 4.3 6.7 7.4.1.2.4.2.6.4l7.8 7.3c.2.2.2.4.4.6 1.1 1.1 2.3 2.2 3.4 3.4.7.7 1.3 1.3 1.9 2.1 1.1 1.8 2.8 3.1 4.9 4.3z" fill="#fff" fill-rule="nonzero"/></svg>